<svg xmlns="http://www.w3.org/2000/svg" xmlns:xlink="http://www.w3.org/1999/xlink" width="366.20001220703125" height="173.1999969482422" viewBox="0 0 366.20001220703125 173.1999969482422" fill="none"><g opacity="1"  transform="translate(0.20001220703125 0)  rotate(0)"><path id="左侧遮盖" fill-rule="evenodd" style="fill:#FFFFFF" opacity="1" d="M328 167L366 167L366 0L328 0L328 167Z"></path><path  id="可视化数据边框" style="fill:#007994; opacity:1;" d="M14,172.8h300c1.87133,0 3.66167,-0.36167 5.371,-1.085c1.65067,-0.698 3.11267,-1.684 4.386,-2.958c1.27333,-1.27333 2.25933,-2.73533 2.958,-4.386c0.72333,-1.70867 1.085,-3.499 1.085,-5.371v-142c0,-1.8716 -0.36167,-3.66183 -1.085,-5.3707c-0.69867,-1.65103 -1.68467,-3.11324 -2.958,-4.38663c-1.27333,-1.2736 -2.73533,-2.2596 -4.386,-2.95801c-1.70933,-0.72311 -3.49967,-1.08466 -5.371,-1.08466h-300c-1.87127,0 -3.66149,0.36155 -5.37067,1.08466c-1.65089,0.69846 -3.11311,1.68446 -4.38666,2.95801c-1.27355,1.27355 -2.25955,2.73576 -2.95801,4.38663c-0.72311,1.7092 -1.08466,3.49943 -1.08466,5.3707l0,142c0,1.87133 0.36155,3.66167 1.08466,5.371c0.69851,1.65067 1.68452,3.11267 2.95801,4.386c1.27364,1.274 2.73586,2.26 4.38666,2.958c1.70918,0.72333 3.4994,1.085 5.37067,1.085zM14,173.2c-1.92533,0 -3.76751,-0.372 -5.52652,-1.116c-1.6987,-0.71867 -3.20325,-1.73333 -4.51365,-3.044c-1.31027,-1.31 -2.32478,-2.81433 -3.04355,-4.513c-0.74418,-1.75933 -1.11628,-3.60167 -1.11628,-5.527l0,-142c0,-1.9254 0.37209,-3.76757 1.11628,-5.5265c0.71872,-1.6988 1.73324,-3.20336 3.04356,-4.51367c1.31031,-1.31031 2.81486,-2.32483 4.51365,-3.04355c1.75895,-0.74419 3.60112,-1.11628 5.52652,-1.11628h300c1.92533,0 3.76767,0.37209 5.527,1.11628c1.698,0.71865 3.20233,1.73316 4.513,3.04355c1.31,1.31017 2.32467,2.81473 3.044,4.51367c0.744,1.75867 1.116,3.60083 1.116,5.5265v142c0,1.92533 -0.372,3.76767 -1.116,5.527c-0.71933,1.69867 -1.734,3.203 -3.044,4.513c-1.31,1.31067 -2.81433,2.32533 -4.513,3.044c-1.75933,0.744 -3.60167,1.116 -5.527,1.116z"></path></g></svg>