<svg xmlns="http://www.w3.org/2000/svg" xmlns:xlink="http://www.w3.org/1999/xlink" width="124.73651123046875" height="107.69650268554688" viewBox="0 0 124.73651123046875 107.69650268554688" fill="none"><g opacity="1"  transform="translate(59.6402587890625 27.920257568359375)  rotate(0)"><g id="文本 1" filter="url(#filter_2)"><g id="文本 1" filter="url(#filter_1)"><g opacity="1" transform="translate(0 0)  rotate(0)"><path id="文本 1"  style="fill:#FFFFFF" opacity="1" d="M26.832 26.976Q26.832 35.856 23.616 40.488Q20.4 45.12 14.448 45.12Q8.496 45.12 5.256 40.488Q2.016 35.856 2.016 26.976Q2.016 18.048 5.256 13.392Q8.496 8.736 14.448 8.736Q20.4 8.736 23.616 13.392Q26.832 18.048 26.832 26.976ZM9.408 26.976Q9.408 32.928 10.632 35.832Q11.856 38.736 14.448 38.736Q17.04 38.736 18.24 35.832Q19.44 32.928 19.44 26.976Q19.44 20.976 18.24 18.048Q17.04 15.12 14.448 15.12Q11.856 15.12 10.632 18.024Q9.408 20.928 9.408 26.976ZM41.376 38.448L55.44 38.448L55.44 44.544L31.2 44.544L31.2 40.032L41.808 28.128Q44.544 25.056 45.624 23.304Q46.704 21.552 46.704 19.68Q46.704 17.616 45.552 16.368Q44.4 15.12 42.432 15.12Q40.416 15.12 38.88 16.584Q37.344 18.048 36.528 20.736L31.056 17.568Q32.304 13.296 35.568 11.016Q38.832 8.736 43.104 8.736Q46.464 8.736 48.936 10.104Q51.408 11.472 52.728 13.872Q54.048 16.272 54.048 19.344Q54.048 22.368 52.584 24.984Q51.12 27.6 47.376 31.776L41.376 38.448Z"></path></g></g></g><g opacity="1" transform="translate(0 0)  rotate(0)"><text><tspan x="0" y="44.544000000000004" font-size="48" line-height="0" fill="#FFFFFF" opacity="1" font-family="HarmonyOSSansSC-Bold" font-weight="Bold" letter-spacing="0" >02</tspan></text></g></g><defs><filter id="filter_1" x="-3" y="-28" width="64" height="113" filterUnits="userSpaceOnUse" color-interpolation-filters="sRGB"><feFlood flood-opacity="0" result="feFloodId"/>
          <feColorMatrix in="SourceAlpha" type="matrix" values="0 0 0 0 0 0 0 0 0 0 0 0 0 0 0 0 0 0 127 0" result="hardAlpha"/>
          
          <feOffset dx="-26" dy="-1"/>
          <feComposite in2="hardAlpha" operator="out"/>
          <feGaussianBlur stdDeviation="14.5"/>
          <feColorMatrix type="matrix" values="0 0 0 0 0 0 0 0 0 0 0 0 0 0 0 0 0 0 0.25 0"/>
          <feBlend mode="normal" in2="filter_feFlood" result="filter_feFlood_1"/>
          <feBlend mode="normal" in="SourceGraphic" in2="filter_1" result="shape"/></filter><filter id="filter_2" x="-3" y="-3" width="64" height="63" filterUnits="userSpaceOnUse" color-interpolation-filters="sRGB"><feFlood flood-opacity="0" result="BackgroundImageFix"/>
          <feBlend mode="normal" in="SourceGraphic" in2="BackgroundImageFix" result="shape"/>
          <feGaussianBlur stdDeviation="1.5" result="effect1_foregroundBlur" /></filter></defs></svg>