<svg xmlns="http://www.w3.org/2000/svg" xmlns:xlink="http://www.w3.org/1999/xlink" width="336" height="64" viewBox="0 0 336 64" fill="none"><g opacity="1"  transform="translate(4 2)  rotate(0)"><mask id="mask-0" fill="white"><path d="M10 56L318 56C323.52 56 328 51.52 328 46L328 10C328 4.48 323.52 0 318 0L10 0C4.48 0 0 4.48 0 10L0 46C0 51.52 4.48 56 10 56Z"  ></path></mask><g mask="url(#mask-0)"><g id="1" filter="url(#filter_1)"><path id="1" fill-rule="evenodd" fill="url(#linear_0)" opacity="1" d="M10 56L318 56C323.52 56 328 51.52 328 46L328 10C328 4.48 323.52 0 318 0L10 0C4.48 0 0 4.48 0 10L0 46C0 51.52 4.48 56 10 56Z"></path></g></g><g mask="url(#mask-0)"><g opacity="0.17" filter="url(#filter_2)" transform="translate(175.75 4.75)  rotate(0)"><path id="减去顶层" fill-rule="evenodd" style="fill:#003E4D" opacity="0.8" d="M59.8249,46.3222h-9.5954c0.59933,-0.91527 1.12627,-1.8773 1.5808,-2.8861h9.0655c-0.29907,0.97787 -0.64937,1.9399 -1.0509,2.8861zM57.0431,51.4172c-0.33467,0.49147 -0.68313,0.97183 -1.0454,1.4411h-12.5178c1.33733,-0.81633 2.57847,-1.77837 3.7234,-2.8861h10.7641c-0.2934,0.48933 -0.6015,0.971 -0.9243,1.445zM49.4982,59.067h-34.4982c-1.11367,-0.78133 -2.16873,-1.63423 -3.1652,-2.5587h40.8278c-0.99627,0.9244 -2.05107,1.7773 -3.1644,2.5587zM32.253,64.5007c-3.5444,0 -6.9561,-0.59457 -10.2351,-1.7837h20.4649c-3.2776,1.18913 -6.68753,1.7837 -10.2298,1.7837zM7.45355,51.4175c-0.32289,-0.47407 -0.63112,-0.95583 -0.92469,-1.4453h10.76504c1.14533,1.10773 2.38697,2.06977 3.7249,2.8861h-12.51989c-0.36223,-0.46913 -0.71068,-0.9494 -1.04536,-1.4408zM3.6202,43.4361h9.0656c0.4546,1.00887 0.98163,1.9709 1.5811,2.8861h-9.59572c-0.40159,-0.9462 -0.75191,-1.90823 -1.05098,-2.8861zM62.0888,36.9c-0.06847,0.9686 -0.1843,1.93063 -0.3475,2.8861h-8.6716c0.23107,-0.9468 0.39463,-1.90883 0.4907,-2.8861zM53.6085,33.25c-0.16513,-2.3166 -0.70563,-4.54853 -1.6215,-6.6958c-1.0812,-2.53493 -2.60897,-4.78157 -4.5833,-6.7399c-1.9768,-1.96087 -4.24613,-3.47883 -6.808,-4.5539c-2.65247,-1.11313 -5.43337,-1.6697 -8.3427,-1.6697c-2.91207,0 -5.69513,0.55667 -8.3492,1.67c-2.56307,1.07507 -4.83333,2.59307 -6.8108,4.554c-1.97467,1.9582 -3.50267,4.20477 -4.584,6.7397c-0.91593,2.14713 -1.45647,4.379 -1.6216,6.6956h-8.51493c0.07709,-1.49753 0.26696,-2.97947 0.56963,-4.4458c0.39615,-1.91933 0.97901,-3.781 1.74856,-5.585c0.75494,-1.76973 1.67604,-3.4525 2.76329,-5.0483c1.07576,-1.579 2.29374,-3.0429 3.65395,-4.3917c1.35967,-1.34833 2.83497,-2.55547 4.4259,-3.6214c1.6068,-1.07647 3.30083,-1.9883 5.0821,-2.73549c3.70567,-1.55441 7.5847,-2.33161 11.6371,-2.33161c4.0502,0 7.9275,0.77729 11.6319,2.33188c1.7806,0.74723 3.474,1.65911 5.0802,2.73562c1.59047,1.06593 3.06533,2.27307 4.4246,3.6214c1.3598,1.34887 2.57747,2.81273 3.653,4.3916c1.08707,1.5958 2.008,3.27853 2.7628,5.0482c0.76947,1.804 1.35223,3.6656 1.7483,5.5848c0.30267,1.4664 0.49253,2.94833 0.5696,4.4458zM10.9355,36.9c0.09607,0.97733 0.25967,1.93937 0.4908,2.8861h-8.67167c-0.16321,-0.95547 -0.27905,-1.9175 -0.3475,-2.8861z"></path><path id="减去顶层" fill-rule="evenodd" style="fill:#000203" opacity="0.8" d="M36.1614,20.0137v13.5192l7.7814,7.7171h-12.0711l-2.953,-2.9287c-0.1992,-0.19753 -0.3771,-0.4127 -0.5337,-0.6455c-0.1566,-0.23273 -0.28883,-0.4786 -0.3967,-0.7376c-0.10793,-0.25893 -0.1894,-0.52597 -0.2444,-0.8011c-0.055,-0.27507 -0.0825,-0.55287 -0.0825,-0.8334v-15.29c0,-0.0696 0.0017,-0.13913 0.0051,-0.2086c0.0034,-0.06947 0.0085,-0.1388 0.0153,-0.208c0.00687,-0.0692 0.0154,-0.1382 0.0256,-0.207c0.0102,-0.0688 0.02207,-0.13733 0.0356,-0.2056c0.0136,-0.0682 0.02883,-0.13603 0.0457,-0.2035c0.01693,-0.06747 0.0355,-0.13447 0.0557,-0.201c0.0202,-0.0666 0.042,-0.13263 0.0654,-0.1981c0.02347,-0.06547 0.0485,-0.13033 0.0751,-0.1946c0.0266,-0.06427 0.05477,-0.12783 0.0845,-0.1907c0.02973,-0.06293 0.061,-0.12507 0.0938,-0.1864c0.0328,-0.06133 0.06707,-0.12183 0.1028,-0.1815c0.0358,-0.05967 0.073,-0.1184 0.1116,-0.1762c0.03867,-0.05787 0.0787,-0.11473 0.1201,-0.1706c0.04147,-0.05587 0.08427,-0.11067 0.1284,-0.1644c0.04413,-0.0538 0.08953,-0.10647 0.1362,-0.158c0.04673,-0.05153 0.0947,-0.10187 0.1439,-0.151c0.04913,-0.0492 0.09947,-0.09717 0.151,-0.1439c0.0516,-0.04667 0.10427,-0.09207 0.158,-0.1362c0.0538,-0.04413 0.10863,-0.08693 0.1645,-0.1284c0.05587,-0.0414 0.1127,-0.08143 0.1705,-0.1201c0.0578,-0.0386 0.11653,-0.0758 0.1762,-0.1116c0.05967,-0.03573 0.12017,-0.07 0.1815,-0.1028c0.0614,-0.0328 0.12353,-0.06407 0.1864,-0.0938c0.06287,-0.02973 0.12643,-0.0579 0.1907,-0.0845c0.06427,-0.0266 0.12913,-0.05163 0.1946,-0.0751c0.06547,-0.0234 0.1315,-0.0452 0.1981,-0.0654c0.06653,-0.0202 0.13353,-0.03877 0.201,-0.0557c0.06747,-0.01687 0.1353,-0.0321 0.2035,-0.0457c0.06827,-0.01353 0.1368,-0.0254 0.2056,-0.0356c0.0688,-0.0102 0.1378,-0.01873 0.207,-0.0256c0.0692,-0.0068 0.13853,-0.0119 0.208,-0.0153c0.06947,-0.0034 0.139,-0.0051 0.2086,-0.0051c0.06953,0 0.13903,0.0017 0.2085,0.0051c0.06947,0.0034 0.1388,0.0085 0.208,0.0153c0.06927,0.00687 0.1383,0.0154 0.2071,0.0256c0.0688,0.0102 0.1373,0.02207 0.2055,0.0356c0.0682,0.0136 0.13603,0.02883 0.2035,0.0457c0.06747,0.01693 0.1345,0.0355 0.2011,0.0557c0.06653,0.0202 0.13257,0.042 0.1981,0.0654c0.06547,0.02347 0.13033,0.0485 0.1946,0.0751c0.06427,0.0266 0.12783,0.05477 0.1907,0.0845c0.06287,0.02973 0.12497,0.061 0.1863,0.0938c0.06133,0.0328 0.12183,0.06707 0.1815,0.1028c0.05967,0.0358 0.1184,0.073 0.1762,0.1116c0.05787,0.03867 0.11473,0.0787 0.1706,0.1201c0.05587,0.04147 0.11067,0.08427 0.1644,0.1284c0.0538,0.04413 0.10647,0.08953 0.158,0.1362c0.05153,0.04673 0.1019,0.0947 0.1511,0.1439c0.04913,0.04913 0.09707,0.09947 0.1438,0.151c0.04673,0.05153 0.09217,0.1042 0.1363,0.158c0.04413,0.05373 0.0869,0.10853 0.1283,0.1644c0.04147,0.05587 0.0815,0.11273 0.1201,0.1706c0.03867,0.0578 0.07587,0.11653 0.1116,0.1762c0.0358,0.05967 0.07007,0.12017 0.1028,0.1815c0.0328,0.06133 0.06407,0.12347 0.0938,0.1864c0.02973,0.06287 0.05793,0.12643 0.0846,0.1907c0.0266,0.06427 0.0516,0.12913 0.075,0.1946c0.02347,0.06547 0.0453,0.1315 0.0655,0.1981c0.0202,0.06653 0.03873,0.13353 0.0556,0.201c0.01693,0.06747 0.03217,0.1353 0.0457,0.2035c0.0136,0.06827 0.0255,0.1368 0.0357,0.2056c0.0102,0.0688 0.0187,0.1378 0.0255,0.207c0.0068,0.0692 0.01193,0.13853 0.0154,0.208c0.0034,0.06947 0.0051,0.139 0.0051,0.2086zM46.5394,44.09c0.1634,0.3056 0.28753,0.62637 0.3724,0.9623c0.08493,0.33593 0.1281,0.67717 0.1295,1.0237c0.0004,0.08593 -0.00183,0.1718 -0.0067,0.2576h-10.0368l-2.2624,-2.2436zM45.0891,49.669c-0.22593,0.1452 -0.4635,0.26787 -0.7127,0.368c-0.2492,0.1002 -0.50557,0.17607 -0.7691,0.2276c-0.2636,0.0516 -0.5297,0.07793 -0.7983,0.079c-0.27153,0.00113 -0.5407,-0.02353 -0.8075,-0.074c-0.2668,-0.05047 -0.5264,-0.1258 -0.7788,-0.226c-0.25233,-0.10027 -0.49287,-0.22357 -0.7216,-0.3699c-0.22873,-0.14633 -0.4415,-0.31303 -0.6383,-0.5001h5.8572c-0.19467,0.18507 -0.40497,0.3502 -0.6309,0.4954z"></path><path id="减去顶层" fill-rule="evenodd" style="fill:#00191F" opacity="0.8" d="M57.7938,14.6584l-9.8,-6.93997c-0.22773,-0.16128 -0.43757,-0.34322 -0.6295,-0.54582c-0.19187,-0.20261 -0.36217,-0.42199 -0.5109,-0.65814c-0.14867,-0.23615 -0.27287,-0.48453 -0.3726,-0.74515c-0.0998,-0.26062 -0.17317,-0.52847 -0.2201,-0.80354c-0.047,-0.27507 -0.06673,-0.55209 -0.0592,-0.83104c0.0076,-0.27896 0.0423,-0.5545 0.1041,-0.82662c0.06187,-0.27212 0.14967,-0.53559 0.2634,-0.79041c0.1138,-0.25483 0.25133,-0.49611 0.4126,-0.72385c0.0402,-0.05676 0.08177,-0.1125 0.1247,-0.16722c0.04293,-0.05472 0.08717,-0.10836 0.1327,-0.16091c0.0456,-0.05255 0.09243,-0.10395 0.1405,-0.1542c0.04807,-0.05025 0.09737,-0.09929 0.1479,-0.14712c0.05047,-0.04783 0.1021,-0.09439 0.1549,-0.13968c0.0528,-0.0453 0.10667,-0.08927 0.1616,-0.13192c0.05493,-0.04265 0.1109,-0.08393 0.1679,-0.12383c0.05693,-0.0399 0.11483,-0.07838 0.1737,-0.11544c0.05887,-0.03706 0.1186,-0.07265 0.1792,-0.10678c0.0606,-0.03413 0.122,-0.06674 0.1842,-0.09786c0.06227,-0.03111 0.1252,-0.06068 0.1888,-0.0887c0.06367,-0.02802 0.128,-0.05446 0.193,-0.07933c0.06493,-0.02486 0.13047,-0.04812 0.1966,-0.06977c0.06607,-0.02165 0.13263,-0.04166 0.1997,-0.06004c0.06713,-0.01838 0.13463,-0.0351 0.2025,-0.05016c0.06793,-0.01506 0.13617,-0.02845 0.2047,-0.04017c0.0686,-0.01171 0.1374,-0.02174 0.2064,-0.03007c0.06907,-0.00834 0.1383,-0.01497 0.2077,-0.01991c0.0694,-0.00494 0.13887,-0.00817 0.2084,-0.0097c0.06953,-0.00153 0.13907,-0.00135 0.2086,0.00054c0.06947,0.00189 0.1389,0.00548 0.2083,0.01078c0.06933,0.0053 0.1385,0.01229 0.2075,0.02098c0.069,0.00869 0.13777,0.01907 0.2063,0.03114c0.06847,0.01207 0.13663,0.02581 0.2045,0.04123c0.0678,0.01542 0.1352,0.03249 0.2022,0.05121c0.067,0.01872 0.13347,0.03908 0.1994,0.06107c0.066,0.02199 0.13143,0.04558 0.1963,0.07078c0.0648,0.0252 0.12897,0.05198 0.1925,0.08033c0.06353,0.02835 0.1263,0.05824 0.1883,0.08968c0.06207,0.03143 0.1233,0.06437 0.1837,0.09881c0.06047,0.03444 0.12003,0.07034 0.1787,0.1077c0.05867,0.03736 0.11637,0.07614 0.1731,0.11634l9.8,6.94c0.22773,0.16128 0.43757,0.34322 0.6295,0.54582c0.19187,0.20261 0.36217,0.42199 0.5109,0.65814c0.14867,0.23615 0.27287,0.48453 0.3726,0.74515c0.0998,0.26062 0.17317,0.52846 0.2201,0.80353c0.047,0.27507 0.06673,0.5521 0.0592,0.8311c-0.0076,0.27893 -0.0423,0.55447 -0.1041,0.8266c-0.06187,0.27207 -0.14967,0.53553 -0.2634,0.7904c-0.1138,0.2548 -0.25133,0.49607 -0.4126,0.7238c-0.0402,0.0568 -0.08177,0.11257 -0.1247,0.1673c-0.04293,0.05467 -0.08717,0.1083 -0.1327,0.1609c-0.0456,0.05253 -0.09243,0.10393 -0.1405,0.1542c-0.04807,0.0502 -0.09737,0.09923 -0.1479,0.1471c-0.05047,0.0478 -0.1021,0.09437 -0.1549,0.1397c-0.0528,0.04527 -0.10667,0.08923 -0.1616,0.1319c-0.05493,0.04267 -0.1109,0.08393 -0.1679,0.1238c-0.05693,0.03993 -0.11483,0.07843 -0.1737,0.1155c-0.05887,0.037 -0.1186,0.07257 -0.1792,0.1067c-0.0606,0.03413 -0.122,0.06677 -0.1842,0.0979c-0.06227,0.03113 -0.1252,0.0607 -0.1888,0.0887c-0.06367,0.028 -0.128,0.05443 -0.193,0.0793c-0.06493,0.02487 -0.13047,0.04813 -0.1966,0.0698c-0.06607,0.0216 -0.13263,0.0416 -0.1997,0.06c-0.06713,0.0184 -0.13463,0.03513 -0.2025,0.0502c-0.06793,0.01507 -0.13617,0.02843 -0.2047,0.0401c-0.0686,0.01173 -0.1374,0.02177 -0.2064,0.0301c-0.06907,0.00833 -0.1383,0.01497 -0.2077,0.0199c-0.0694,0.00493 -0.13887,0.00817 -0.2084,0.0097c-0.06953,0.00153 -0.13907,0.00137 -0.2086,-0.0005c-0.06953,-0.00193 -0.13897,-0.00553 -0.2083,-0.0108c-0.06933,-0.00527 -0.1385,-0.01227 -0.2075,-0.021c-0.069,-0.00867 -0.13777,-0.01903 -0.2063,-0.0311c-0.06847,-0.01207 -0.13663,-0.0258 -0.2045,-0.0412c-0.0678,-0.01547 -0.1352,-0.03257 -0.2022,-0.0513c-0.067,-0.01867 -0.13347,-0.039 -0.1994,-0.061c-0.066,-0.022 -0.13143,-0.0456 -0.1963,-0.0708c-0.0648,-0.0252 -0.12897,-0.05197 -0.1925,-0.0803c-0.06353,-0.0284 -0.1263,-0.0583 -0.1883,-0.0897c-0.06207,-0.03147 -0.1233,-0.0644 -0.1837,-0.0988c-0.06047,-0.03447 -0.12003,-0.07037 -0.1787,-0.1077c-0.05867,-0.0374 -0.11637,-0.0762 -0.1731,-0.1164z"></path><path id="减去顶层" fill-rule="evenodd" style="fill:#00191F" opacity="0.8" d="M1.79382,7.72162l9.79998,-6.94c0.22773,-0.16128 0.46903,-0.29879 0.7239,-0.41253c0.2548,-0.11375 0.51827,-0.20154 0.7904,-0.26339c0.27213,-0.06185 0.54767,-0.09656 0.8266,-0.10413c0.27893,-0.00757 0.55593,0.01214 0.831,0.05914c0.27507,0.047 0.54293,0.12037 0.8036,0.22013c0.2606,0.09976 0.50897,0.22398 0.7451,0.37266c0.2362,0.14868 0.4556,0.31898 0.6582,0.51088c0.2026,0.19189 0.38453,0.40171 0.5458,0.62945c0.16127,0.22773 0.29877,0.46901 0.4125,0.72384c0.11373,0.25483 0.20153,0.5183 0.2634,0.79042c0.06187,0.27212 0.09657,0.54766 0.1041,0.82661c0.0076,0.27895 -0.0121,0.55597 -0.0591,0.83104c-0.047,0.27507 -0.12037,0.54292 -0.2201,0.80354c-0.0998,0.26062 -0.22403,0.50901 -0.3727,0.74516c-0.14867,0.23615 -0.31897,0.45552 -0.5109,0.65813c-0.19187,0.20261 -0.40167,0.38455 -0.6294,0.54582l-9.80002,6.94002c-0.05676,0.0402 -0.11447,0.07897 -0.17314,0.1163c-0.05867,0.0374 -0.11822,0.0733 -0.17865,0.1077c-0.06043,0.03447 -0.12166,0.0674 -0.18371,0.0988c-0.06205,0.03147 -0.12483,0.06137 -0.18834,0.0897c-0.06351,0.02833 -0.12769,0.0551 -0.19252,0.0803c-0.06483,0.0252 -0.13023,0.0488 -0.19622,0.0708c-0.06599,0.022 -0.13247,0.04237 -0.19946,0.0611c-0.06699,0.01873 -0.13439,0.0358 -0.20222,0.0512c-0.06782,0.0154 -0.13598,0.02913 -0.20448,0.0412c-0.0685,0.01207 -0.13726,0.02247 -0.20627,0.0312c-0.06901,0.00867 -0.13819,0.01567 -0.20754,0.021c-0.06935,0.00527 -0.13879,0.00883 -0.20832,0.0107c-0.06953,0.00193 -0.13906,0.00213 -0.2086,0.0006c-0.06954,-0.00153 -0.139,-0.00477 -0.20837,-0.0097c-0.06938,-0.00493 -0.1386,-0.01157 -0.20765,-0.0199c-0.06905,-0.00833 -0.13786,-0.01837 -0.20642,-0.0301c-0.06857,-0.01173 -0.1368,-0.02513 -0.2047,-0.0402c-0.06791,-0.01507 -0.1354,-0.03177 -0.20248,-0.0501c-0.06708,-0.0184 -0.13367,-0.03843 -0.19978,-0.0601c-0.0661,-0.0216 -0.13163,-0.04483 -0.19658,-0.0697c-0.06496,-0.02487 -0.12927,-0.05133 -0.19293,-0.0794c-0.06366,-0.028 -0.12659,-0.05757 -0.1888,-0.0887c-0.06221,-0.03107 -0.12362,-0.06367 -0.18423,-0.0978c-0.06061,-0.03413 -0.12034,-0.06973 -0.1792,-0.1068c-0.05886,-0.03707 -0.11677,-0.07553 -0.17374,-0.1154c-0.05697,-0.03993 -0.11293,-0.08123 -0.16787,-0.1239c-0.05495,-0.0426 -0.10881,-0.08657 -0.1616,-0.1319c-0.05278,-0.04527 -0.10442,-0.09183 -0.15492,-0.1397c-0.0505,-0.0478 -0.0998,-0.09683 -0.14789,-0.1471c-0.04809,-0.05027 -0.09491,-0.10167 -0.14048,-0.1542c-0.04557,-0.05253 -0.08982,-0.10617 -0.13275,-0.1609c-0.04293,-0.05473 -0.0845,-0.11047 -0.1247,-0.1672c-0.0402,-0.0568 -0.07898,-0.11453 -0.11634,-0.1732c-0.03736,-0.05867 -0.07327,-0.1182 -0.10771,-0.1786c-0.03444,-0.06047 -0.06738,-0.1217 -0.09881,-0.1837c-0.03143,-0.06207 -0.06133,-0.12487 -0.08968,-0.1884c-0.02835,-0.06347 -0.05513,-0.12763 -0.08033,-0.1925c-0.0252,-0.0648 -0.0488,-0.1302 -0.07078,-0.1962c-0.02199,-0.066 -0.04235,-0.1325 -0.06107,-0.1995c-0.01872,-0.06693 -0.03579,-0.13433 -0.05121,-0.2022c-0.01542,-0.0678 -0.02916,-0.13597 -0.04123,-0.2045c-0.01207,-0.06847 -0.02245,-0.1372 -0.03114,-0.2062c-0.00869,-0.069 -0.01569,-0.1382 -0.02098,-0.2076c-0.0053,-0.06933 -0.00889,-0.13877 -0.01078,-0.2083c-0.00189,-0.06953 -0.00207,-0.13907 -0.00054,-0.2086c0.00153,-0.06953 0.00476,-0.139 0.0097,-0.2084c0.00494,-0.06933 0.01157,-0.13853 0.01991,-0.2076c0.00834,-0.06907 0.01836,-0.13787 0.03007,-0.2064c0.01171,-0.0686 0.0251,-0.13683 0.04017,-0.2047c0.01506,-0.06793 0.03178,-0.13543 0.05016,-0.2025c0.01838,-0.06709 0.03839,-0.13369 0.06004,-0.19979c0.02165,-0.0661 0.0449,-0.13163 0.06977,-0.19658c0.02486,-0.06496 0.05131,-0.12927 0.07933,-0.19293c0.02802,-0.06366 0.05759,-0.12659 0.0887,-0.1888c0.03111,-0.06221 0.06373,-0.12362 0.09786,-0.18423c0.03413,-0.06061 0.06972,-0.12034 0.10678,-0.1792c0.03706,-0.05886 0.07554,-0.11677 0.11544,-0.17374c0.0399,-0.05697 0.08118,-0.11293 0.12383,-0.16787c0.04265,-0.05495 0.08662,-0.10881 0.13192,-0.1616c0.04529,-0.05278 0.09186,-0.10442 0.13969,-0.15492c0.04783,-0.0505 0.09687,-0.0998 0.14712,-0.14789c0.05025,-0.04809 0.10165,-0.09491 0.1542,-0.14048c0.05255,-0.04557 0.10618,-0.08982 0.1609,-0.13276c0.05473,-0.04293 0.11047,-0.0845 0.16723,-0.12469z"></path></g></g></g><defs><linearGradient id="linear_0" x1="50%" y1="-98.412%" x2="51%" y2="76.029%" gradientUnits="objectBoundingBox"><stop offset="0" stop-color="#004554" stop-opacity="1" /><stop offset="1" stop-color="#007994" stop-opacity="1" /></linearGradient><filter id="filter_1" x="-4" y="-6" width="336" height="68" filterUnits="userSpaceOnUse" color-interpolation-filters="sRGB"><feFlood flood-opacity="0" result="feFloodId"/>
          <feColorMatrix in="SourceAlpha" type="matrix" values="0 0 0 0 0 0 0 0 0 0 0 0 0 0 0 0 0 0 127 0" result="hardAlpha"/>
          
          <feOffset dx="0" dy="2"/>
          <feComposite in2="hardAlpha" operator="out"/>
          <feGaussianBlur stdDeviation="2"/>
          <feColorMatrix type="matrix" values="0 0 0 0 0 0 0 0 0 0 0 0 0 0 0 0 0 0 0.25 0"/>
          <feBlend mode="normal" in2="filter_feFlood" result="filter_feFlood_1"/>
          <feBlend mode="normal" in="SourceGraphic" in2="filter_1" result="shape"/></filter><filter id="filter_2" x="-0.5" y="-0.5" width="65.5" height="65.50070190429688" filterUnits="userSpaceOnUse" color-interpolation-filters="sRGB"><feFlood flood-opacity="0" result="BackgroundImageFix"/>
          <feBlend mode="normal" in="SourceGraphic" in2="BackgroundImageFix" result="shape"/>
          <feGaussianBlur stdDeviation="0.25" result="effect1_foregroundBlur" /></filter></defs></svg>